<svg xmlns="http://www.w3.org/2000/svg" width="375" viewBox="0 0 375 375" height="375" version="1.0"><defs><clipPath id="a"><path d="M 159 1.40625 L 250 1.40625 L 250 107 L 159 107 Z M 159 1.40625"/></clipPath></defs><path fill="#FFF" d="M-37.5 -37.5H412.5V412.5H-37.5z"/><path fill="#FFF" d="M-37.5 -37.5H412.5V412.5H-37.5z"/><path fill="#FFF" d="M-37.5 -37.5H412.5V412.5H-37.5z"/><path fill="#3871C1" d="M 88.921875 274.921875 L 57.050781 226.316406 C 57.050781 226.316406 98.160156 173.039062 114.398438 75.109375 C 114.398438 75.109375 126.210938 77.492188 140.355469 59.042969 L 159.671875 139.039062 L 145.359375 252.703125 L 88.921875 274.921875"/><path fill="#3A8BCD" d="M 269.238281 274.921875 L 320.730469 274.921875 C 316.0625 262.984375 311.753906 250.691406 307.800781 238.304688 C 296.125 250.917969 283.199219 263.199219 269.238281 274.921875"/><path fill="#3A8BCD" d="M 226.242188 221.070312 C 249.984375 203.480469 271.019531 183.714844 287.757812 163.664062 C 274.636719 105.425781 269.296875 59.042969 269.296875 59.042969 C 261.332031 62.410156 253.390625 64.890625 245.582031 66.710938 L 245.582031 101.507812 C 245.582031 103.828125 243.703125 105.710938 241.378906 105.710938 C 239.0625 105.710938 237.179688 103.828125 237.179688 101.507812 L 237.179688 68.425781 C 225.882812 70.421875 214.976562 71.113281 204.824219 71.113281 C 192.0625 71.113281 178.097656 70.019531 163.675781 66.621094 L 163.675781 101.507812 C 163.675781 103.828125 161.792969 105.710938 159.472656 105.710938 C 157.15625 105.710938 155.273438 103.828125 155.273438 101.507812 L 155.273438 64.386719 C 150.328125 62.914062 145.347656 61.148438 140.355469 59.042969 C 140.355469 59.042969 126.585938 178.679688 88.921875 274.921875 L 119.34375 274.921875 C 153.066406 266.140625 191.292969 246.964844 226.242188 221.070312"/><path fill="#80CC28" d="M 252.949219 265.832031 C 153.421875 339.574219 45.117188 362.085938 11.035156 316.113281 C 7.269531 311.03125 4.566406 305.320312 2.875 299.089844 C 2.824219 311.546875 5.945312 322.566406 12.582031 331.523438 C 44.664062 374.796875 146.613281 353.601562 240.296875 284.191406 C 278.105469 256.179688 308.789062 224.59375 329.832031 194.039062 C 309.285156 218.734375 283.277344 243.363281 252.949219 265.832031"/><path fill="#5E2590" d="M 372.816406 147.023438 C 375.015625 106.214844 366.839844 62.574219 366.839844 62.574219 C 366.839844 62.574219 338.59375 93.027344 304.292969 111.355469 L 327.984375 121.582031 C 311.605469 156.585938 277.933594 196.03125 232.59375 229.628906 C 150.3125 290.589844 60.773438 309.199219 32.601562 271.199219 C 16.183594 249.046875 24.238281 212.5625 50.089844 173.90625 C 13.210938 222.789062 0 270.378906 20.59375 298.160156 C 52.671875 341.433594 154.621094 320.242188 248.304688 250.828125 C 297.714844 214.222656 334.945312 171.523438 354.40625 132.984375 L 372.816406 147.023438"/><g clip-path="url(#a)"><path fill="#3871C1" d="M 168.074219 102.011719 L 168.074219 47.367188 C 168.074219 27.109375 184.28125 10.3125 204.546875 10.160156 C 224.976562 10.007812 241.582031 26.519531 241.582031 46.90625 L 241.582031 102.011719 C 241.582031 104.335938 243.460938 106.214844 245.78125 106.214844 C 248.101562 106.214844 249.980469 104.335938 249.980469 102.011719 L 249.980469 47.480469 C 249.980469 22.628906 230.128906 2.003906 205.269531 1.765625 C 180.171875 1.523438 159.671875 21.863281 159.671875 46.90625 L 159.671875 102.011719 C 159.671875 104.335938 161.550781 106.214844 163.871094 106.214844 C 166.191406 106.214844 168.074219 104.335938 168.074219 102.011719"/></g></svg>